<svg xmlns="http://www.w3.org/2000/svg" width="786" height="2494" viewBox="0 0 786 2494">
<rect width="100%" height="100%" rx="10" fill="#0d1117"/>
<rect width="100%" height="38" rx="10" fill="#21262d"/>
<circle cx="18" cy="19" r="6" fill="#ff5f56"/><circle cx="38" cy="19" r="6" fill="#ffbd2e"/><circle cx="58" cy="19" r="6" fill="#27c93f"/>
<text x="78" y="25" fill="#c9d1d9" font-family="monospace" font-size="14">Networking Fundamentals evidence</text>
<g fill="#c9d1d9" font-family="monospace" font-size="14" xml:space="preserve">
<text x="18" y="62">$ date --iso-8601=seconds</text><text x="18" y="82">2026-09-04T15:53:18+00:00</text><text x="18" y="102"></text><text x="18" y="122">$ ip address show</text><text x="18" y="142">1: lo: &lt;LOOPBACK,UP,LOWER_UP&gt; mtu 65536 qdisc noqueue state UNKNOWN group default qlen 1000</text><text x="18" y="162">    link/loopback 00:00:00:00:00:00 brd 00:00:00:00:00:00</text><text x="18" y="182">    inet 127.0.0.1/8 scope host lo</text><text x="18" y="202">       valid_lft forever preferred_lft forever</text><text x="18" y="222">    inet6 ::1/128 scope host </text><text x="18" y="242">       valid_lft forever preferred_lft forever</text><text x="18" y="262">2: eth0: &lt;BROADCAST,MULTICAST,UP,LOWER_UP&gt; mtu 1500 qdisc mq state UP group default qlen 1000</text><text x="18" y="282">    link/ether 7c:1e:52:0f:11:a7 brd ff:ff:ff:ff:ff:ff</text><text x="18" y="302">    inet 10.0.10.160/16 metric 100 brd 10.0.255.255 scope global eth0</text><text x="18" y="322">       valid_lft forever preferred_lft forever</text><text x="18" y="342">    inet6 fe80::7e1e:52ff:fe0f:11a7/64 scope link proto kernel_ll </text><text x="18" y="362">       valid_lft forever preferred_lft forever</text><text x="18" y="382">3: docker0: &lt;NO-CARRIER,BROADCAST,MULTICAST,UP&gt; mtu 1500 qdisc noqueue state DOWN group default </text><text x="18" y="402">    link/ether 02:42:26:96:15:01 brd ff:ff:ff:ff:ff:ff</text><text x="18" y="422">    inet 172.17.0.1/16 brd 172.17.255.255 scope global docker0</text><text x="18" y="442">       valid_lft forever preferred_lft forever</text><text x="18" y="462">    inet6 fe80::42:26ff:fe96:1501/64 scope link proto kernel_ll </text><text x="18" y="482">       valid_lft forever preferred_lft forever</text><text x="18" y="502"></text><text x="18" y="522">$ ip route show</text><text x="18" y="542">default via 10.0.0.1 dev eth0 proto dhcp src 10.0.10.160 metric 100 </text><text x="18" y="562">10.0.0.0/16 dev eth0 proto kernel scope link src 10.0.10.160 metric 100 </text><text x="18" y="582">10.0.0.1 dev eth0 proto dhcp scope link src 10.0.10.160 metric 100 </text><text x="18" y="602">168.63.129.16 via 10.0.0.1 dev eth0 proto dhcp src 10.0.10.160 metric 100 </text><text x="18" y="622">169.254.169.254 via 10.0.0.1 dev eth0 proto dhcp src 10.0.10.160 metric 100 </text><text x="18" y="642">172.17.0.0/16 dev docker0 proto kernel scope link src 172.17.0.1 linkdown </text><text x="18" y="662"></text><text x="18" y="682">$ ping -c 4 google.com</text><text x="18" y="702">PING google.com (192.178.211.139) 56(84) bytes of data.</text><text x="18" y="722"></text><text x="18" y="742">--- google.com ping statistics ---</text><text x="18" y="762">4 packets transmitted, 0 received, 100% packet loss, time 3086ms</text><text x="18" y="782"></text><text x="18" y="802"></text><text x="18" y="822">$ traceroute -m 8 google.com</text><text x="18" y="842">traceroute to google.com (192.178.211.102), 8 hops max, 60 byte packets</text><text x="18" y="862"> 1  * * *</text><text x="18" y="882"> 2  * * *</text><text x="18" y="902"> 3  * * *</text><text x="18" y="922"> 4  * * *</text><text x="18" y="942"> 5  * * *</text><text x="18" y="962"> 6  * * *</text><text x="18" y="982"> 7  * * *</text><text x="18" y="1002"> 8  * * *</text><text x="18" y="1022"></text><text x="18" y="1042">$ netstat -tuln</text><text x="18" y="1062">Active Internet connections (only servers)</text><text x="18" y="1082">Proto Recv-Q Send-Q Local Address           Foreign Address         State      </text><text x="18" y="1102">tcp        0      0 0.0.0.0:2000            0.0.0.0:*               LISTEN     </text><text x="18" y="1122">tcp        0      0 127.0.0.1:13005         0.0.0.0:*               LISTEN     </text><text x="18" y="1142">tcp        0      0 127.0.0.1:41559         0.0.0.0:*               LISTEN     </text><text x="18" y="1162">tcp        0      0 127.0.0.1:16635         0.0.0.0:*               LISTEN     </text><text x="18" y="1182">tcp        0      0 127.0.0.1:16634         0.0.0.0:*               LISTEN     </text><text x="18" y="1202">tcp        0      0 127.0.0.1:16636         0.0.0.0:*               LISTEN     </text><text x="18" y="1222">tcp        0      0 127.0.0.1:12563         0.0.0.0:*               LISTEN     </text><text x="18" y="1242">tcp        0      0 0.0.0.0:2222            0.0.0.0:*               LISTEN     </text><text x="18" y="1262">tcp        0      0 127.0.0.53:53           0.0.0.0:*               LISTEN     </text><text x="18" y="1282">tcp6       0      0 :::2000                 :::*                    LISTEN     </text><text x="18" y="1302">tcp6       0      0 ::1:16634               :::*                    LISTEN     </text><text x="18" y="1322">tcp6       0      0 ::1:16635               :::*                    LISTEN     </text><text x="18" y="1342">tcp6       0      0 ::1:16636               :::*                    LISTEN     </text><text x="18" y="1362">tcp6       0      0 :::2222                 :::*                    LISTEN     </text><text x="18" y="1382">udp        0      0 127.0.0.53:53           0.0.0.0:*                          </text><text x="18" y="1402">udp        0      0 10.0.10.160:68          0.0.0.0:*                          </text><text x="18" y="1422"></text><text x="18" y="1442">$ telnet google.com 80</text><text x="18" y="1462">Trying 192.178.211.139...</text><text x="18" y="1482">Connected to google.com.</text><text x="18" y="1502">Escape character is &#x27;^]&#x27;.</text><text x="18" y="1522">Connection closed by foreign host.</text><text x="18" y="1542"></text><text x="18" y="1562">$ sudo tcpdump -nn -i any -c 5 host google.com</text><text x="18" y="1582">tcpdump: WARNING: any: That device doesn&#x27;t support promiscuous mode</text><text x="18" y="1602">(Promiscuous mode not supported on the &quot;any&quot; device)</text><text x="18" y="1622">tcpdump: verbose output suppressed, use -v[v]... for full protocol decode</text><text x="18" y="1642">listening on any, link-type LINUX_SLL2 (Linux cooked v2), snapshot length 262144 bytes</text><text x="18" y="1662"></text><text x="18" y="1682">0 packets captured</text><text x="18" y="1702">10 packets received by filter</text><text x="18" y="1722">0 packets dropped by kernel</text><text x="18" y="1742"></text><text x="18" y="1762">$ nslookup google.com</text><text x="18" y="1782">Server:     127.0.0.53</text><text x="18" y="1802">Address:    127.0.0.53#53</text><text x="18" y="1822"></text><text x="18" y="1842">Non-authoritative answer:</text><text x="18" y="1862">Name:   google.com</text><text x="18" y="1882">Address: 192.178.211.138</text><text x="18" y="1902">Name:   google.com</text><text x="18" y="1922">Address: 192.178.211.102</text><text x="18" y="1942">Name:   google.com</text><text x="18" y="1962">Address: 192.178.211.139</text><text x="18" y="1982">Name:   google.com</text><text x="18" y="2002">Address: 192.178.211.113</text><text x="18" y="2022">Name:   google.com</text><text x="18" y="2042">Address: 192.178.211.100</text><text x="18" y="2062">Name:   google.com</text><text x="18" y="2082">Address: 192.178.211.101</text><text x="18" y="2102">Name:   google.com</text><text x="18" y="2122">Address: 2404:6800:4000:1025::66</text><text x="18" y="2142">Name:   google.com</text><text x="18" y="2162">Address: 2404:6800:4000:1025::71</text><text x="18" y="2182">Name:   google.com</text><text x="18" y="2202">Address: 2404:6800:4000:1025::8b</text><text x="18" y="2222">Name:   google.com</text><text x="18" y="2242">Address: 2404:6800:4000:1025::64</text><text x="18" y="2262"></text><text x="18" y="2282"></text><text x="18" y="2302">$ dig google.com</text><text x="18" y="2322"></text><text x="18" y="2342">; &lt;&lt;&gt;&gt; DiG 9.20.24-1ubuntu0.3-Ubuntu &lt;&lt;&gt;&gt; google.com</text><text x="18" y="2362">;; global options: +cmd</text><text x="18" y="2382">;; Got answer:</text><text x="18" y="2402">;; -&gt;&gt;HEADER&lt;&lt;- opcode: QUERY, status: NOERROR, id: 7594</text><text x="18" y="2422">;; flags: qr rd ra; QUERY: 1, ANSWER: 6, AUTHORITY: 0, ADDITIONAL: 1</text><text x="18" y="2442"></text><text x="18" y="2462">... 55 additional lines are in the text transcript</text>
</g></svg>
